<mxfile host="app.diagrams.net" modified="2023-02-01T20:54:26.942Z" agent="5.0 (Windows NT 10.0; Win64; x64) AppleWebKit/537.36 (KHTML, like Gecko) Chrome/109.0.0.0 Safari/537.36" etag="V1GGKva4Dkfqa1Hpx8LC" version="20.8.13" type="github">
  <diagram name="Page-1" id="79C8ItEHoG9UGgvcIin0">
    <mxGraphModel dx="1955" dy="1617" grid="1" gridSize="10" guides="1" tooltips="1" connect="1" arrows="1" fold="1" page="1" pageScale="1" pageWidth="850" pageHeight="1100" math="0" shadow="0">
      <root>
        <mxCell id="0" />
        <mxCell id="1" parent="0" />
        <mxCell id="EKeSIN89vDWcd_4QjRBw-58" value="" style="rounded=0;whiteSpace=wrap;html=1;" vertex="1" parent="1">
          <mxGeometry x="90" y="-130" width="680" height="840" as="geometry" />
        </mxCell>
        <mxCell id="EKeSIN89vDWcd_4QjRBw-1" value="Hospital Room Sorting" style="ellipse;whiteSpace=wrap;html=1;" vertex="1" parent="1">
          <mxGeometry x="380" y="-70" width="100" height="50" as="geometry" />
        </mxCell>
        <mxCell id="EKeSIN89vDWcd_4QjRBw-2" value="Undergo Routine Check/Operation" style="ellipse;whiteSpace=wrap;html=1;" vertex="1" parent="1">
          <mxGeometry x="460" y="50" width="120" height="80" as="geometry" />
        </mxCell>
        <mxCell id="EKeSIN89vDWcd_4QjRBw-3" value="Admission" style="ellipse;whiteSpace=wrap;html=1;" vertex="1" parent="1">
          <mxGeometry x="185" y="-40" width="110" height="50" as="geometry" />
        </mxCell>
        <mxCell id="EKeSIN89vDWcd_4QjRBw-4" value="Doctor Appointment" style="ellipse;whiteSpace=wrap;html=1;" vertex="1" parent="1">
          <mxGeometry x="220" y="50" width="120" height="80" as="geometry" />
        </mxCell>
        <mxCell id="EKeSIN89vDWcd_4QjRBw-5" value="Test Appointment" style="ellipse;whiteSpace=wrap;html=1;" vertex="1" parent="1">
          <mxGeometry x="230" y="140" width="120" height="80" as="geometry" />
        </mxCell>
        <mxCell id="EKeSIN89vDWcd_4QjRBw-6" value="Add Doctor/Staff" style="ellipse;whiteSpace=wrap;html=1;" vertex="1" parent="1">
          <mxGeometry x="560" y="190" width="120" height="80" as="geometry" />
        </mxCell>
        <mxCell id="EKeSIN89vDWcd_4QjRBw-7" value="Edit Account Info" style="ellipse;whiteSpace=wrap;html=1;" vertex="1" parent="1">
          <mxGeometry x="560" y="400" width="120" height="80" as="geometry" />
        </mxCell>
        <mxCell id="EKeSIN89vDWcd_4QjRBw-8" value="Login" style="ellipse;whiteSpace=wrap;html=1;" vertex="1" parent="1">
          <mxGeometry x="210" y="230" width="120" height="80" as="geometry" />
        </mxCell>
        <mxCell id="EKeSIN89vDWcd_4QjRBw-9" value="ReScheduling Appointments" style="ellipse;whiteSpace=wrap;html=1;" vertex="1" parent="1">
          <mxGeometry x="300" y="300" width="120" height="80" as="geometry" />
        </mxCell>
        <mxCell id="EKeSIN89vDWcd_4QjRBw-10" value="Discharge Report" style="ellipse;whiteSpace=wrap;html=1;" vertex="1" parent="1">
          <mxGeometry x="305" y="450" width="120" height="80" as="geometry" />
        </mxCell>
        <mxCell id="EKeSIN89vDWcd_4QjRBw-11" value="Prescribed Test" style="ellipse;whiteSpace=wrap;html=1;" vertex="1" parent="1">
          <mxGeometry x="180" y="370" width="120" height="80" as="geometry" />
        </mxCell>
        <mxCell id="EKeSIN89vDWcd_4QjRBw-12" value="Admission" style="ellipse;whiteSpace=wrap;html=1;" vertex="1" parent="1">
          <mxGeometry x="400" y="540" width="120" height="80" as="geometry" />
        </mxCell>
        <mxCell id="EKeSIN89vDWcd_4QjRBw-13" value="Patient&#39;s Payment Info" style="ellipse;whiteSpace=wrap;html=1;" vertex="1" parent="1">
          <mxGeometry x="260" y="580" width="120" height="80" as="geometry" />
        </mxCell>
        <mxCell id="EKeSIN89vDWcd_4QjRBw-14" value="Delete Staff" style="ellipse;whiteSpace=wrap;html=1;" vertex="1" parent="1">
          <mxGeometry x="570" y="290" width="120" height="80" as="geometry" />
        </mxCell>
        <mxCell id="EKeSIN89vDWcd_4QjRBw-24" style="edgeStyle=none;rounded=0;orthogonalLoop=1;jettySize=auto;html=1;exitX=0.5;exitY=0.5;exitDx=0;exitDy=0;exitPerimeter=0;entryX=0;entryY=0.5;entryDx=0;entryDy=0;" edge="1" parent="1" source="EKeSIN89vDWcd_4QjRBw-17" target="EKeSIN89vDWcd_4QjRBw-3">
          <mxGeometry relative="1" as="geometry">
            <mxPoint x="70" y="100" as="targetPoint" />
          </mxGeometry>
        </mxCell>
        <mxCell id="EKeSIN89vDWcd_4QjRBw-25" style="edgeStyle=none;rounded=0;orthogonalLoop=1;jettySize=auto;html=1;exitX=0.5;exitY=0.5;exitDx=0;exitDy=0;exitPerimeter=0;entryX=0;entryY=0.5;entryDx=0;entryDy=0;" edge="1" parent="1" source="EKeSIN89vDWcd_4QjRBw-17" target="EKeSIN89vDWcd_4QjRBw-4">
          <mxGeometry relative="1" as="geometry" />
        </mxCell>
        <mxCell id="EKeSIN89vDWcd_4QjRBw-26" style="edgeStyle=none;rounded=0;orthogonalLoop=1;jettySize=auto;html=1;exitX=0.5;exitY=0.5;exitDx=0;exitDy=0;exitPerimeter=0;entryX=0;entryY=0.5;entryDx=0;entryDy=0;" edge="1" parent="1" source="EKeSIN89vDWcd_4QjRBw-17" target="EKeSIN89vDWcd_4QjRBw-5">
          <mxGeometry relative="1" as="geometry" />
        </mxCell>
        <mxCell id="EKeSIN89vDWcd_4QjRBw-27" style="edgeStyle=none;rounded=0;orthogonalLoop=1;jettySize=auto;html=1;exitX=0.5;exitY=0.5;exitDx=0;exitDy=0;exitPerimeter=0;entryX=0;entryY=0.5;entryDx=0;entryDy=0;" edge="1" parent="1" source="EKeSIN89vDWcd_4QjRBw-17" target="EKeSIN89vDWcd_4QjRBw-8">
          <mxGeometry relative="1" as="geometry" />
        </mxCell>
        <mxCell id="EKeSIN89vDWcd_4QjRBw-17" value="Receptionist" style="shape=umlActor;verticalLabelPosition=bottom;verticalAlign=top;html=1;outlineConnect=0;" vertex="1" parent="1">
          <mxGeometry x="10" y="100" width="30" height="60" as="geometry" />
        </mxCell>
        <mxCell id="EKeSIN89vDWcd_4QjRBw-28" style="edgeStyle=none;rounded=0;orthogonalLoop=1;jettySize=auto;html=1;exitX=0.5;exitY=0.5;exitDx=0;exitDy=0;exitPerimeter=0;" edge="1" parent="1" source="EKeSIN89vDWcd_4QjRBw-18" target="EKeSIN89vDWcd_4QjRBw-8">
          <mxGeometry relative="1" as="geometry" />
        </mxCell>
        <mxCell id="EKeSIN89vDWcd_4QjRBw-30" style="edgeStyle=none;rounded=0;orthogonalLoop=1;jettySize=auto;html=1;exitX=0.5;exitY=0.5;exitDx=0;exitDy=0;exitPerimeter=0;entryX=0;entryY=0;entryDx=0;entryDy=0;" edge="1" parent="1" source="EKeSIN89vDWcd_4QjRBw-18" target="EKeSIN89vDWcd_4QjRBw-13">
          <mxGeometry relative="1" as="geometry">
            <Array as="points">
              <mxPoint x="-40" y="300" />
            </Array>
          </mxGeometry>
        </mxCell>
        <mxCell id="EKeSIN89vDWcd_4QjRBw-31" style="edgeStyle=none;rounded=0;orthogonalLoop=1;jettySize=auto;html=1;exitX=0.5;exitY=0.5;exitDx=0;exitDy=0;exitPerimeter=0;entryX=0;entryY=0.5;entryDx=0;entryDy=0;" edge="1" parent="1" source="EKeSIN89vDWcd_4QjRBw-18" target="EKeSIN89vDWcd_4QjRBw-11">
          <mxGeometry relative="1" as="geometry" />
        </mxCell>
        <mxCell id="EKeSIN89vDWcd_4QjRBw-18" value="Other Staff (Medical)" style="shape=umlActor;verticalLabelPosition=bottom;verticalAlign=top;html=1;outlineConnect=0;" vertex="1" parent="1">
          <mxGeometry x="-130" y="220" width="30" height="60" as="geometry" />
        </mxCell>
        <mxCell id="EKeSIN89vDWcd_4QjRBw-33" style="edgeStyle=none;rounded=0;orthogonalLoop=1;jettySize=auto;html=1;exitX=0.5;exitY=0.5;exitDx=0;exitDy=0;exitPerimeter=0;entryX=0;entryY=1;entryDx=0;entryDy=0;" edge="1" parent="1" source="EKeSIN89vDWcd_4QjRBw-19" target="EKeSIN89vDWcd_4QjRBw-8">
          <mxGeometry relative="1" as="geometry" />
        </mxCell>
        <mxCell id="EKeSIN89vDWcd_4QjRBw-34" style="edgeStyle=none;rounded=0;orthogonalLoop=1;jettySize=auto;html=1;exitX=0.5;exitY=0.5;exitDx=0;exitDy=0;exitPerimeter=0;entryX=0;entryY=0.5;entryDx=0;entryDy=0;" edge="1" parent="1" source="EKeSIN89vDWcd_4QjRBw-19" target="EKeSIN89vDWcd_4QjRBw-10">
          <mxGeometry relative="1" as="geometry" />
        </mxCell>
        <mxCell id="EKeSIN89vDWcd_4QjRBw-19" value="Doctor/Surgeon" style="shape=umlActor;verticalLabelPosition=bottom;verticalAlign=top;html=1;outlineConnect=0;" vertex="1" parent="1">
          <mxGeometry x="-20" y="510" width="30" height="60" as="geometry" />
        </mxCell>
        <mxCell id="EKeSIN89vDWcd_4QjRBw-23" style="rounded=0;orthogonalLoop=1;jettySize=auto;html=1;exitX=0.5;exitY=0.5;exitDx=0;exitDy=0;exitPerimeter=0;" edge="1" parent="1" source="EKeSIN89vDWcd_4QjRBw-21">
          <mxGeometry relative="1" as="geometry">
            <mxPoint x="-10" y="540" as="targetPoint" />
          </mxGeometry>
        </mxCell>
        <mxCell id="EKeSIN89vDWcd_4QjRBw-21" value="Consultant" style="shape=umlActor;verticalLabelPosition=bottom;verticalAlign=top;html=1;outlineConnect=0;" vertex="1" parent="1">
          <mxGeometry x="-120" y="570" width="30" height="60" as="geometry" />
        </mxCell>
        <mxCell id="EKeSIN89vDWcd_4QjRBw-36" value="" style="curved=1;endArrow=classic;html=1;rounded=0;entryX=0.5;entryY=1;entryDx=0;entryDy=0;" edge="1" parent="1" target="EKeSIN89vDWcd_4QjRBw-9">
          <mxGeometry width="50" height="50" relative="1" as="geometry">
            <mxPoint y="540" as="sourcePoint" />
            <mxPoint x="350" y="440" as="targetPoint" />
            <Array as="points">
              <mxPoint x="50" y="540" />
              <mxPoint y="490" />
              <mxPoint x="210" y="500" />
              <mxPoint x="300" y="450" />
            </Array>
          </mxGeometry>
        </mxCell>
        <mxCell id="EKeSIN89vDWcd_4QjRBw-37" value="" style="endArrow=none;dashed=1;html=1;rounded=0;entryX=1;entryY=0.5;entryDx=0;entryDy=0;" edge="1" parent="1" target="EKeSIN89vDWcd_4QjRBw-4">
          <mxGeometry width="50" height="50" relative="1" as="geometry">
            <mxPoint x="460" y="90" as="sourcePoint" />
            <mxPoint x="370" y="100" as="targetPoint" />
          </mxGeometry>
        </mxCell>
        <mxCell id="EKeSIN89vDWcd_4QjRBw-38" value="" style="endArrow=none;dashed=1;html=1;rounded=0;" edge="1" parent="1">
          <mxGeometry width="50" height="50" relative="1" as="geometry">
            <mxPoint x="470" y="100" as="sourcePoint" />
            <mxPoint x="300" y="-10" as="targetPoint" />
          </mxGeometry>
        </mxCell>
        <mxCell id="EKeSIN89vDWcd_4QjRBw-48" style="edgeStyle=none;rounded=0;orthogonalLoop=1;jettySize=auto;html=1;exitX=0.5;exitY=0.5;exitDx=0;exitDy=0;exitPerimeter=0;entryX=1;entryY=0.3333333333333333;entryDx=0;entryDy=0;entryPerimeter=0;" edge="1" parent="1" source="EKeSIN89vDWcd_4QjRBw-39" target="EKeSIN89vDWcd_4QjRBw-43">
          <mxGeometry relative="1" as="geometry" />
        </mxCell>
        <mxCell id="EKeSIN89vDWcd_4QjRBw-39" value="Income" style="shape=umlActor;verticalLabelPosition=bottom;verticalAlign=top;html=1;outlineConnect=0;" vertex="1" parent="1">
          <mxGeometry x="930" y="-80" width="30" height="60" as="geometry" />
        </mxCell>
        <mxCell id="EKeSIN89vDWcd_4QjRBw-52" style="edgeStyle=none;rounded=0;orthogonalLoop=1;jettySize=auto;html=1;exitX=0.5;exitY=0.5;exitDx=0;exitDy=0;exitPerimeter=0;entryX=1;entryY=0.5;entryDx=0;entryDy=0;" edge="1" parent="1" source="EKeSIN89vDWcd_4QjRBw-40" target="EKeSIN89vDWcd_4QjRBw-6">
          <mxGeometry relative="1" as="geometry" />
        </mxCell>
        <mxCell id="EKeSIN89vDWcd_4QjRBw-53" style="edgeStyle=none;rounded=0;orthogonalLoop=1;jettySize=auto;html=1;exitX=0.5;exitY=0.5;exitDx=0;exitDy=0;exitPerimeter=0;entryX=1;entryY=0.5;entryDx=0;entryDy=0;" edge="1" parent="1" source="EKeSIN89vDWcd_4QjRBw-40" target="EKeSIN89vDWcd_4QjRBw-14">
          <mxGeometry relative="1" as="geometry" />
        </mxCell>
        <mxCell id="EKeSIN89vDWcd_4QjRBw-54" style="edgeStyle=none;rounded=0;orthogonalLoop=1;jettySize=auto;html=1;exitX=0.5;exitY=0.5;exitDx=0;exitDy=0;exitPerimeter=0;entryX=1;entryY=0.5;entryDx=0;entryDy=0;" edge="1" parent="1" source="EKeSIN89vDWcd_4QjRBw-40" target="EKeSIN89vDWcd_4QjRBw-7">
          <mxGeometry relative="1" as="geometry" />
        </mxCell>
        <mxCell id="EKeSIN89vDWcd_4QjRBw-40" value="Admin" style="shape=umlActor;verticalLabelPosition=bottom;verticalAlign=top;html=1;outlineConnect=0;" vertex="1" parent="1">
          <mxGeometry x="850" y="250" width="30" height="60" as="geometry" />
        </mxCell>
        <mxCell id="EKeSIN89vDWcd_4QjRBw-55" style="edgeStyle=none;rounded=0;orthogonalLoop=1;jettySize=auto;html=1;exitX=0.5;exitY=0.5;exitDx=0;exitDy=0;exitPerimeter=0;entryX=1;entryY=0.5;entryDx=0;entryDy=0;" edge="1" parent="1" source="EKeSIN89vDWcd_4QjRBw-41" target="EKeSIN89vDWcd_4QjRBw-12">
          <mxGeometry relative="1" as="geometry" />
        </mxCell>
        <mxCell id="EKeSIN89vDWcd_4QjRBw-56" style="edgeStyle=none;rounded=0;orthogonalLoop=1;jettySize=auto;html=1;exitX=0.5;exitY=0.5;exitDx=0;exitDy=0;exitPerimeter=0;entryX=1;entryY=0.5;entryDx=0;entryDy=0;" edge="1" parent="1" source="EKeSIN89vDWcd_4QjRBw-41" target="EKeSIN89vDWcd_4QjRBw-10">
          <mxGeometry relative="1" as="geometry">
            <Array as="points">
              <mxPoint x="560" y="510" />
            </Array>
          </mxGeometry>
        </mxCell>
        <mxCell id="EKeSIN89vDWcd_4QjRBw-57" style="edgeStyle=none;rounded=0;orthogonalLoop=1;jettySize=auto;html=1;exitX=0.5;exitY=0.5;exitDx=0;exitDy=0;exitPerimeter=0;entryX=1;entryY=1;entryDx=0;entryDy=0;" edge="1" parent="1" source="EKeSIN89vDWcd_4QjRBw-41" target="EKeSIN89vDWcd_4QjRBw-13">
          <mxGeometry relative="1" as="geometry">
            <Array as="points">
              <mxPoint x="660" y="640" />
            </Array>
          </mxGeometry>
        </mxCell>
        <mxCell id="EKeSIN89vDWcd_4QjRBw-41" value="Information Sector" style="shape=umlActor;verticalLabelPosition=bottom;verticalAlign=top;html=1;outlineConnect=0;" vertex="1" parent="1">
          <mxGeometry x="870" y="390" width="30" height="60" as="geometry" />
        </mxCell>
        <mxCell id="EKeSIN89vDWcd_4QjRBw-47" style="rounded=0;orthogonalLoop=1;jettySize=auto;html=1;exitX=0.5;exitY=0.5;exitDx=0;exitDy=0;exitPerimeter=0;entryX=0.5;entryY=0.5;entryDx=0;entryDy=0;entryPerimeter=0;" edge="1" parent="1" source="EKeSIN89vDWcd_4QjRBw-42" target="EKeSIN89vDWcd_4QjRBw-43">
          <mxGeometry relative="1" as="geometry">
            <Array as="points">
              <mxPoint x="930" y="90" />
            </Array>
          </mxGeometry>
        </mxCell>
        <mxCell id="EKeSIN89vDWcd_4QjRBw-42" value="Expenditure" style="shape=umlActor;verticalLabelPosition=bottom;verticalAlign=top;html=1;outlineConnect=0;" vertex="1" parent="1">
          <mxGeometry x="940" y="120" width="30" height="60" as="geometry" />
        </mxCell>
        <mxCell id="EKeSIN89vDWcd_4QjRBw-49" style="edgeStyle=none;rounded=0;orthogonalLoop=1;jettySize=auto;html=1;exitX=0.5;exitY=0.5;exitDx=0;exitDy=0;exitPerimeter=0;entryX=1;entryY=0.5;entryDx=0;entryDy=0;" edge="1" parent="1" source="EKeSIN89vDWcd_4QjRBw-43" target="EKeSIN89vDWcd_4QjRBw-1">
          <mxGeometry relative="1" as="geometry" />
        </mxCell>
        <mxCell id="EKeSIN89vDWcd_4QjRBw-50" style="edgeStyle=none;rounded=0;orthogonalLoop=1;jettySize=auto;html=1;exitX=0.5;exitY=0.5;exitDx=0;exitDy=0;exitPerimeter=0;entryX=1;entryY=0.5;entryDx=0;entryDy=0;" edge="1" parent="1" source="EKeSIN89vDWcd_4QjRBw-43" target="EKeSIN89vDWcd_4QjRBw-2">
          <mxGeometry relative="1" as="geometry" />
        </mxCell>
        <mxCell id="EKeSIN89vDWcd_4QjRBw-51" style="edgeStyle=none;rounded=0;orthogonalLoop=1;jettySize=auto;html=1;exitX=0.5;exitY=0.5;exitDx=0;exitDy=0;exitPerimeter=0;entryX=1;entryY=0.5;entryDx=0;entryDy=0;" edge="1" parent="1" source="EKeSIN89vDWcd_4QjRBw-43" target="EKeSIN89vDWcd_4QjRBw-5">
          <mxGeometry relative="1" as="geometry" />
        </mxCell>
        <mxCell id="EKeSIN89vDWcd_4QjRBw-43" value="Finance Management System&lt;br&gt;" style="shape=umlActor;verticalLabelPosition=bottom;verticalAlign=top;html=1;outlineConnect=0;" vertex="1" parent="1">
          <mxGeometry x="830" y="20" width="30" height="60" as="geometry" />
        </mxCell>
        <mxCell id="EKeSIN89vDWcd_4QjRBw-59" value="&lt;font style=&quot;font-size: 25px;&quot;&gt;HospiWare System&lt;/font&gt;" style="text;html=1;strokeColor=none;fillColor=none;align=center;verticalAlign=middle;whiteSpace=wrap;rounded=0;" vertex="1" parent="1">
          <mxGeometry x="660" y="-100" width="60" height="30" as="geometry" />
        </mxCell>
      </root>
    </mxGraphModel>
  </diagram>
</mxfile>
